<svg width="20" height="20" viewBox="0 0 20 20" fill="none" xmlns="http://www.w3.org/2000/svg">
<g clip-path="url(#clip0_628_5010)">
<path d="M16.868 26.0973V17.1999L25.2535 12.1686L25.2466 16.0207C25.4956 15.9862 25.748 15.962 26.0074 15.962C26.3151 15.962 26.6194 15.9931 26.9133 16.0415L26.9929 10.9133C26.9963 10.6194 26.8476 10.3462 26.5987 10.1906L16.4392 3.91442C16.128 3.72423 15.7441 3.72423 15.4329 3.91442L5.56733 10.0246C5.32182 10.1768 5.17313 10.4465 5.17313 10.7335L5.19042 21.6503C5.19042 22.0514 5.40827 22.4214 5.76098 22.6185L15.4294 28.013C15.8894 28.2274 16.4426 28.2274 16.6674 28.1202L21.8578 25.2224C21.4878 24.8074 21.1766 24.3372 20.9449 23.8219L16.868 26.0938V26.0973ZM15.2012 25.9797L6.85715 21.3253L6.83987 12.2032L15.2012 17.2207V25.9797ZM16.0208 15.7683L7.60753 10.7197L15.9412 5.56732L24.4271 10.7266L16.0208 15.7683Z" fill="#FF6B2B"/>
<path d="M30.8451 25.1221L29.4584 23.7873C29.4826 23.7528 29.5068 23.7182 29.531 23.6836C30.1085 22.743 30.2849 21.633 30.0255 20.5611C29.493 18.3445 27.2557 16.9751 25.0426 17.5077C23.9706 17.7636 23.0612 18.424 22.4837 19.3681C21.9062 20.3086 21.7333 21.4186 21.9892 22.4906C22.2451 23.5626 22.9056 24.472 23.8496 25.0495C24.5066 25.4541 25.2466 25.6581 26.0004 25.6581C26.3255 25.6581 26.6505 25.6201 26.9721 25.5405C27.4459 25.4264 27.885 25.2293 28.2827 24.97L29.6901 26.3255C29.8526 26.4811 30.0601 26.5572 30.2676 26.5572C30.4854 26.5572 30.7033 26.4707 30.8693 26.3013C31.1874 25.9693 31.177 25.4402 30.8451 25.1221ZM26.5814 23.9187C25.9417 24.0743 25.2812 23.9672 24.7175 23.6248C24.1574 23.2825 23.7631 22.7396 23.6075 22.0999C23.4519 21.4601 23.5591 20.7997 23.9015 20.236C24.2438 19.6758 24.7867 19.2816 25.4264 19.126C25.6201 19.0811 25.8137 19.0568 26.0004 19.0568C27.1139 19.0568 28.1271 19.8176 28.3968 20.9449C28.549 21.5846 28.4452 22.2451 28.1029 22.8087C28.0164 22.9471 27.9196 23.075 27.8124 23.1926C27.7813 23.2168 27.7467 23.2444 27.7156 23.2721C27.6983 23.2894 27.6845 23.3101 27.6706 23.3309C27.3663 23.6144 26.9929 23.8185 26.5745 23.9153L26.5814 23.9187Z" fill="#FF6B2B"/>
</g>
<defs>
<clipPath id="clip0_628_5010">
<rect width="20" height="20" fill="white"/>
</clipPath>
</defs>
</svg>
