<svg width="64" height="64" viewBox="0 0 64 64" fill="none" xmlns="http://www.w3.org/2000/svg">
<rect width="64" height="64" rx="8" fill="white"/>
<path d="M18 36.3C18 34.6198 18 33.7798 18.327 33.138C18.6146 32.5735 19.0735 32.1146 19.638 31.827C20.2798 31.5 21.1198 31.5 22.8 31.5H41.2C42.8802 31.5 43.7202 31.5 44.362 31.827C44.9265 32.1146 45.3854 32.5735 45.673 33.138C46 33.7798 46 34.6198 46 36.3V48.7C46 50.3802 46 51.2202 45.673 51.862C45.3854 52.4265 44.9265 52.8854 44.362 53.173C43.7202 53.5 42.8802 53.5 41.2 53.5H22.8C21.1198 53.5 20.2798 53.5 19.638 53.173C19.0735 52.8854 18.6146 52.4265 18.327 51.862C18 51.2202 18 50.3802 18 48.7V36.3Z" fill="#F81466"/>
<path fill-rule="evenodd" clip-rule="evenodd" d="M26.625 39.875C27.3154 39.875 27.875 40.4346 27.875 41.125C27.875 43.4032 29.7218 45.25 32 45.25C34.2782 45.25 36.125 43.4032 36.125 41.125C36.125 40.4346 36.6846 39.875 37.375 39.875C38.0654 39.875 38.625 40.4346 38.625 41.125C38.625 44.7839 35.6589 47.75 32 47.75C28.3411 47.75 25.375 44.7839 25.375 41.125C25.375 40.4346 25.9346 39.875 26.625 39.875Z" fill="white"/>
<path fill-rule="evenodd" clip-rule="evenodd" d="M53.9752 26.2833C54.1644 26.3982 54.4053 26.2355 54.3585 26.019C52.1318 15.7181 42.9672 8 31.9999 8C21.0327 8 11.8681 15.7181 9.6414 26.019C9.59462 26.2355 9.83544 26.3982 10.0247 26.2833C12.15 24.993 14.6445 24.25 17.3124 24.25C19.3708 24.25 21.3258 24.6922 23.0877 25.4868C23.1728 25.5252 23.2721 25.5141 23.3466 25.4578C25.7017 23.6795 28.6339 22.625 31.8124 22.625C35.0536 22.625 38.0387 23.7215 40.417 25.5639C40.493 25.6228 40.5957 25.634 40.6826 25.5929C42.5036 24.7317 44.5393 24.25 46.6874 24.25C49.3554 24.25 51.8499 24.993 53.9752 26.2833Z" fill="#F81466"/>
<path fill-rule="evenodd" clip-rule="evenodd" d="M54.2631 26.2527L43.1222 35.8881L41.4868 33.9972L52.6277 24.3618L54.2631 26.2527Z" fill="#F81466"/>
<path fill-rule="evenodd" clip-rule="evenodd" d="M22.5131 33.9973L11.3722 24.3619L9.73682 26.2528L20.8777 35.8882L22.5131 33.9973Z" fill="#F81466"/>
<path fill-rule="evenodd" clip-rule="evenodd" d="M41.2432 23.1015C41.8775 23.374 42.1708 24.1091 41.8983 24.7434L36.152 38.1184C35.8795 38.7527 35.1444 39.0459 34.5101 38.7734C33.8758 38.5009 33.5826 37.7658 33.8551 37.1315L39.6013 23.7565C39.8738 23.1222 40.6089 22.829 41.2432 23.1015ZM22.7564 23.1015C23.3907 22.829 24.1258 23.1222 24.3983 23.7565L30.1446 37.1315C30.4171 37.7658 30.1238 38.5009 29.4895 38.7734C28.8552 39.0459 28.1201 38.7527 27.8476 38.1184L22.1013 24.7434C21.8288 24.1091 22.1221 23.374 22.7564 23.1015Z" fill="#F81466"/>
</svg>
