<?xml version="1.0" encoding="UTF-8"?>
<svg width="20px" height="20px" viewBox="0 0 20 20" version="1.1" xmlns="http://www.w3.org/2000/svg" xmlns:xlink="http://www.w3.org/1999/xlink">
    <title>aftership_img_logo</title>
    <g id="aftership_img_logo" stroke="none" stroke-width="1" fill="none" fill-rule="evenodd">
        <g id="aftership_glyph_whitebg" transform="translate(1.000000, 0.000000)">
            <path d="M9,0 C13.9481102,0 18,3.88572157 18,8.70824305 C18,12.7675529 15.131247,16.1674419 11.2589704,17.139107 L9,19.9839025 L6.74102959,17.139107 C2.86847961,16.1674419 0,12.7675529 0,8.70824305 C0,3.88572157 4.01607649,0 9,0" id="Combined-Shape" fill="#FFA622"></path>
            <path d="M3.95215403,7.05341324 C3.9899827,7.05341324 4.02745998,7.06067209 4.06255302,7.07479606 L7.69093866,8.53512021 C8.13237189,8.71278479 8.4215423,9.1408801 8.4215423,9.61672461 L8.4215423,13.0354235 C8.4215423,13.1987258 8.28915962,13.3311085 8.1258573,13.3311085 C8.08802863,13.3311085 8.05055136,13.3238497 8.01545831,13.3097257 L4.38707267,11.8494016 C3.94563944,11.671737 3.65646903,11.2436417 3.65646903,10.7677972 L3.65646903,7.34909824 C3.65646903,7.18579592 3.78885172,7.05341324 3.95215403,7.05341324 Z M14.0499079,7.05341324 C14.2132102,7.05341324 14.3455929,7.18579592 14.3455929,7.34909824 L14.3455929,7.34909824 L14.3455929,10.7677972 C14.3455929,11.2436417 14.0564225,11.671737 13.6149893,11.8494016 L13.6149893,11.8494016 L9.98660365,13.3097257 C9.95151061,13.3238497 9.91403334,13.3311085 9.87620467,13.3311085 C9.71290235,13.3311085 9.58051967,13.1987258 9.58051967,13.0354235 L9.58051967,13.0354235 L9.58051967,9.61672461 C9.58051967,9.1408801 9.86969008,8.71278479 10.3111233,8.53512021 L10.3111233,8.53512021 L13.9395089,7.07479606 C13.974602,7.06067209 14.0120793,7.05341324 14.0499079,7.05341324 Z M9.52004711,3.92735725 L13.5222596,5.53186573 C13.6601851,5.58716083 13.7271703,5.74379711 13.6718752,5.88172267 C13.6444647,5.95009427 13.5902211,6.004238 13.5217991,6.03152247 L9.51766796,7.6282399 C9.18705269,7.76007853 8.8184617,7.76007853 8.48784642,7.6282399 L4.4837153,6.03152247 C4.34568806,5.97648169 4.27841424,5.81996914 4.33345502,5.68194189 C4.36073949,5.61351989 4.41488322,5.55927627 4.48325482,5.53186573 L8.48546727,3.92735725 C8.81748326,3.79425026 9.18803113,3.79425026 9.52004711,3.92735725 Z" id="形状结合" fill="#FFFFFF"></path>
        </g>
    </g>
</svg>