<svg width="32" height="32" viewBox="0 0 32 32" fill="none" xmlns="http://www.w3.org/2000/svg">
<g clip-path="url(#clip0_426_200)">
<path d="M14.717 1.3438C15.5109 0.8854 16.4891 0.8854 17.283 1.3438L28.0503 7.56072C28.8443 8.01912 29.3333 8.86628 29.3333 9.78308V22.2169C29.3333 23.1337 28.8443 23.9809 28.0503 24.4393L17.283 30.6562C16.4891 31.1146 15.5109 31.1146 14.717 30.6562L3.94967 24.4393C3.15575 23.9809 2.66667 23.1337 2.66667 22.2169V9.78308C2.66667 8.86628 3.15575 8.01912 3.94967 7.56072L14.717 1.3438Z" fill="#1868F5"/>
<path d="M21.9509 11.8267L16.6667 14.8783C16.464 14.9953 16.2341 15.057 16 15.057C15.766 15.057 15.5361 14.9953 15.3334 14.8783L10.0492 11.8267C9.99871 11.7974 9.95678 11.7553 9.92764 11.7047C9.89849 11.6541 9.88315 11.5967 9.88315 11.5383C9.88315 11.4799 9.89849 11.4226 9.92764 11.372C9.95678 11.3213 9.99871 11.2793 10.0492 11.25L15.3334 8.19916C15.5361 8.08213 15.766 8.02052 16 8.02052C16.2341 8.02052 16.464 8.08213 16.6667 8.19916L21.9509 11.25C22.0014 11.2793 22.0433 11.3213 22.0725 11.372C22.1016 11.4226 22.117 11.4799 22.117 11.5383C22.117 11.5967 22.1016 11.6541 22.0725 11.7047C22.0433 11.7553 22.0014 11.7974 21.9509 11.8267Z" fill="white"/>
<path d="M15 17.7658V23.595C15.0001 23.6536 14.9848 23.7111 14.9555 23.7618C14.9263 23.8126 14.8842 23.8547 14.8336 23.884C14.7829 23.9134 14.7254 23.9288 14.6668 23.9288C14.6082 23.9288 14.5507 23.9134 14.5 23.8842L9.33334 20.9008C9.13121 20.7841 8.96326 20.6164 8.84627 20.4145C8.72928 20.2125 8.66735 19.9834 8.66667 19.75V13.9167C8.66659 13.8581 8.68193 13.8006 8.71115 13.7498C8.74037 13.6991 8.78244 13.6569 8.83313 13.6276C8.88381 13.5983 8.94133 13.5828 8.99988 13.5828C9.05844 13.5828 9.11596 13.5982 9.16667 13.6275L14.3333 16.6108C14.5361 16.7279 14.7044 16.8962 14.8215 17.099C14.9385 17.3017 15.0001 17.5317 15 17.7658Z" fill="white"/>
<path d="M23.3333 13.9167V19.75C23.3334 19.9841 23.2718 20.2141 23.1548 20.4168C23.0378 20.6196 22.8694 20.7879 22.6667 20.905L17.5 23.8883C17.4493 23.9176 17.3918 23.933 17.3332 23.933C17.2747 23.933 17.2171 23.9175 17.1665 23.8882C17.1158 23.8589 17.0737 23.8167 17.0445 23.766C17.0153 23.7153 16.9999 23.6577 17 23.5992V17.7658C16.9999 17.5317 17.0615 17.3017 17.1786 17.099C17.2956 16.8962 17.4639 16.7279 17.6667 16.6108L22.8333 13.6275C22.884 13.5982 22.9416 13.5828 23.0001 13.5828C23.0587 13.5828 23.1162 13.5983 23.1669 13.6276C23.2176 13.6569 23.2596 13.6991 23.2889 13.7498C23.3181 13.8006 23.3334 13.8581 23.3333 13.9167Z" fill="white"/>
</g>
<defs>
<clipPath id="clip0_426_200">
<rect width="32" height="32" fill="white"/>
</clipPath>
</defs>
</svg>
