<svg width="32" height="32" viewBox="0 0 32 32" fill="none" xmlns="http://www.w3.org/2000/svg">
<g clip-path="url(#clip0_426_201)">
<path fill-rule="evenodd" clip-rule="evenodd" d="M32 16C32 9.09644 26.4036 3.5 19.5 3.5C16.5159 3.5 13.7761 4.54565 11.6269 6.29053L4.52525 11.209C3.89077 11.6484 3.1407 11.887 2.43857 12.2075C0.999872 12.8641 0 14.3153 0 16C0 17.6921 1.00862 19.1486 2.45744 19.8011C3.14788 20.112 3.88273 20.3482 4.50385 20.7814L12.1662 26.1247C12.1664 26.1248 12.1667 26.1247 12.1667 26.1245C12.1667 26.1243 12.1669 26.1241 12.1671 26.1243C14.2269 27.6188 16.7605 28.5 19.5 28.5C26.4036 28.5 32 22.9036 32 16Z" fill="#F81466"/>
<path d="M29.3333 16C29.3333 10.5692 24.9308 6.16665 19.5 6.16665C14.0692 6.16665 9.66667 10.5692 9.66667 16C9.66667 21.4308 14.0692 25.8333 19.5 25.8333C24.9308 25.8333 29.3333 21.4308 29.3333 16Z" fill="white"/>
<path fill-rule="evenodd" clip-rule="evenodd" d="M15.4167 15.1667C15.8769 15.1667 16.25 15.5398 16.25 16C16.25 17.933 17.817 19.5 19.75 19.5C21.683 19.5 23.25 17.933 23.25 16C23.25 15.5398 23.6231 15.1667 24.0833 15.1667C24.5436 15.1667 24.9167 15.5398 24.9167 16C24.9167 18.8535 22.6035 21.1667 19.75 21.1667C16.8965 21.1667 14.5833 18.8535 14.5833 16C14.5833 15.5398 14.9564 15.1667 15.4167 15.1667Z" fill="#F81466"/>
<path d="M6.66666 25.8333C6.66666 24.3606 5.47275 23.1667 3.99999 23.1667C2.52724 23.1667 1.33333 24.3606 1.33333 25.8333C1.33333 27.3061 2.52724 28.5 3.99999 28.5C5.47275 28.5 6.66666 27.3061 6.66666 25.8333Z" fill="#F81466"/>
</g>
<defs>
<clipPath id="clip0_426_201">
<rect width="32" height="32" fill="white"/>
</clipPath>
</defs>
</svg>
