<svg width="64" height="64" viewBox="0 0 64 64" fill="none" xmlns="http://www.w3.org/2000/svg">
<rect width="64" height="64" rx="8" fill="white"/>
<path fill-rule="evenodd" clip-rule="evenodd" d="M56 32C56 21.6447 47.6053 13.25 37.25 13.25C32.7739 13.25 28.6641 14.8185 25.4403 17.4358L14.7879 24.8135C13.8362 25.4726 12.711 25.8305 11.6579 26.3112C9.49981 27.2961 8 29.4729 8 32C8 34.5381 9.51293 36.7229 11.6862 37.7016C12.7218 38.168 13.8241 38.5223 14.7558 39.172L26.2494 47.1871C26.2496 47.1872 26.25 47.1871 26.25 47.1867C26.25 47.1864 26.2504 47.1862 26.2506 47.1864C29.3403 49.4281 33.1408 50.75 37.25 50.75C47.6053 50.75 56 42.3553 56 32Z" fill="#F81466"/>
<path d="M52 32C52 23.8538 45.3962 17.25 37.25 17.25C29.1038 17.25 22.5 23.8538 22.5 32C22.5 40.1462 29.1038 46.75 37.25 46.75C45.3962 46.75 52 40.1462 52 32Z" fill="white"/>
<path fill-rule="evenodd" clip-rule="evenodd" d="M31.125 30.75C31.8154 30.75 32.375 31.3096 32.375 32C32.375 34.8995 34.7255 37.25 37.625 37.25C40.5245 37.25 42.875 34.8995 42.875 32C42.875 31.3096 43.4346 30.75 44.125 30.75C44.8154 30.75 45.375 31.3096 45.375 32C45.375 36.2802 41.9052 39.75 37.625 39.75C33.3448 39.75 29.875 36.2802 29.875 32C29.875 31.3096 30.4346 30.75 31.125 30.75Z" fill="#F81466"/>
<path d="M18 46.75C18 44.5409 16.2091 42.75 14 42.75C11.7909 42.75 10 44.5409 10 46.75C10 48.9591 11.7909 50.75 14 50.75C16.2091 50.75 18 48.9591 18 46.75Z" fill="#F81466"/>
</svg>
