<svg width="64" height="64" viewBox="0 0 64 64" fill="none" xmlns="http://www.w3.org/2000/svg">
<rect width="64" height="64" rx="8" fill="white"/>
<path d="M30.0755 10.0157C31.2664 9.3281 32.7336 9.3281 33.9245 10.0157L50.0755 19.3411C51.2664 20.0287 52 21.2994 52 22.6746V41.3254C52 42.7006 51.2664 43.9713 50.0755 44.6589L33.9245 53.9843C32.7336 54.6719 31.2664 54.6719 30.0755 53.9843L13.9245 44.6589C12.7336 43.9713 12 42.7006 12 41.3254V22.6746C12 21.2994 12.7336 20.0287 13.9245 19.3411L30.0755 10.0157Z" fill="#1868F5"/>
<path d="M40.9263 25.74L33.0001 30.3175C32.696 30.493 32.3511 30.5854 32.0001 30.5854C31.649 30.5854 31.3041 30.493 31.0001 30.3175L23.0738 25.74C22.9981 25.696 22.9352 25.6329 22.8914 25.557C22.8477 25.4811 22.8247 25.3951 22.8247 25.3075C22.8247 25.2199 22.8477 25.1338 22.8914 25.0579C22.9352 24.982 22.9981 24.9189 23.0738 24.875L31.0001 20.2987C31.3041 20.1232 31.649 20.0308 32.0001 20.0308C32.3511 20.0308 32.696 20.1232 33.0001 20.2987L40.9263 24.875C41.0021 24.9189 41.065 24.982 41.1087 25.0579C41.1524 25.1338 41.1754 25.2199 41.1754 25.3075C41.1754 25.3951 41.1524 25.4811 41.1087 25.557C41.065 25.6329 41.0021 25.696 40.9263 25.74Z" fill="white"/>
<path d="M30.5 34.6488V43.3925C30.5001 43.4804 30.4771 43.5667 30.4333 43.6428C30.3895 43.7189 30.3264 43.7821 30.2503 43.8261C30.1743 43.8701 30.088 43.8932 30.0002 43.8933C29.9124 43.8933 29.8261 43.8702 29.75 43.8263L22 39.3513C21.6968 39.1762 21.4449 38.9247 21.2694 38.6217C21.0939 38.3188 21.001 37.9751 21 37.625V28.875C20.9999 28.7872 21.0229 28.7009 21.0667 28.6247C21.1105 28.5486 21.1736 28.4854 21.2497 28.4414C21.3257 28.3975 21.412 28.3743 21.4998 28.3743C21.5876 28.3742 21.6739 28.3973 21.75 28.4413L29.5 32.9163C29.8041 33.0918 30.0566 33.3444 30.2322 33.6485C30.4077 33.9526 30.5001 34.2976 30.5 34.6488Z" fill="white"/>
<path d="M43 28.875V37.625C43.0001 37.9762 42.9077 38.3211 42.7322 38.6253C42.5566 38.9294 42.3041 39.1819 42 39.3575L34.25 43.8325C34.1739 43.8764 34.0876 43.8995 33.9998 43.8995C33.912 43.8995 33.8257 43.8763 33.7497 43.8323C33.6736 43.7884 33.6105 43.7251 33.5667 43.649C33.5229 43.5729 33.4999 43.4866 33.5 43.3988V34.6488C33.4999 34.2976 33.5923 33.9526 33.7678 33.6485C33.9434 33.3444 34.1959 33.0918 34.5 32.9163L42.25 28.4413C42.3261 28.3973 42.4124 28.3742 42.5002 28.3743C42.588 28.3743 42.6743 28.3975 42.7503 28.4414C42.8264 28.4854 42.8895 28.5486 42.9333 28.6247C42.9771 28.7009 43.0001 28.7872 43 28.875Z" fill="white"/>
</svg>
