<svg version="1.2" xmlns="http://www.w3.org/2000/svg" viewBox="0 0 32 32" width="20" height="20">
	<title>aftership_tracking-new-01-svg</title>
	<defs>
		<clipPath clipPathUnits="userSpaceOnUse" id="cp1">
			<path d="m0 0h32v32h-32z"/>
		</clipPath>
	</defs>
	<style>
		.s0 { fill: #ff6b2b } 
	</style>
	<g id="Clip-Path" clip-path="url(#cp1)">
		<g id="Layer">
			<path id="Layer" fill-rule="evenodd" class="s0" d="m16.9 26.1l4-2.3q0.4 0.8 1 1.4l-5.2 2.9c-0.3 0.1-0.8 0.1-1.3-0.1l-9.6-5.4c-0.4-0.2-0.6-0.5-0.6-0.9v-11c0-0.3 0.1-0.5 0.4-0.7l9.8-6.1c0.3-0.2 0.7-0.2 1 0l10.2 6.3c0.2 0.1 0.4 0.4 0.4 0.7l-0.1 5.1q-0.4 0-0.9 0-0.4 0-0.8 0l0.1-3.8-8.4 5zm-1.7-8.9l-8.4-5 0.1 9.1 8.3 4.7zm9.2-6.5l-8.5-5.2-8.3 5.2 8.4 5z"/>
			<path id="Layer" fill-rule="evenodd" class="s0" d="m30.9 26.3q-0.3 0.3-0.6 0.3-0.4 0-0.6-0.3l-1.4-1.3q-0.6 0.4-1.3 0.5-0.5 0.2-1 0.2c-0.8 0-1.5-0.2-2.2-0.7-0.9-0.5-1.6-1.4-1.8-2.5-0.3-1.1-0.1-2.2 0.5-3.1 0.6-1 1.5-1.6 2.5-1.9 2.3-0.5 4.5 0.8 5 3.1 0.3 1 0.1 2.1-0.5 3.1q0 0 0 0.1l1.3 1.3c0.4 0.3 0.4 0.9 0.1 1.2zm-4.3-2.4q0.6-0.1 1.1-0.6 0 0 0 0 0.1-0.1 0.1-0.1 0.2-0.2 0.3-0.4c0.3-0.6 0.4-1.2 0.3-1.9-0.3-1.1-1.3-1.8-2.4-1.8q-0.3 0-0.6 0c-0.6 0.2-1.2 0.6-1.5 1.1-0.3 0.6-0.4 1.3-0.3 1.9 0.2 0.6 0.6 1.2 1.1 1.5 0.6 0.4 1.2 0.5 1.9 0.3z"/>
		</g>
	</g>
</svg>