<svg width="105" height="32" viewBox="0 0 105 32" fill="none" xmlns="http://www.w3.org/2000/svg">
<g clip-path="url(#clip0)">
<g clip-path="url(#clip1)">
<path fill-rule="evenodd" clip-rule="evenodd" d="M11.314 21.0383H11.3573V22.6358H14.2183V9.33706H11.3573V10.9778H11.314C10.577 9.8552 9.05984 8.99164 7.06581 8.99164C2.73096 8.99164 0 12.7049 0 15.9865C0 19.4407 2.55756 23.0244 6.93576 23.0244C8.7564 23.0244 10.4036 22.2472 11.314 21.0383ZM11.4873 15.9807C11.4873 18.3555 9.53665 20.2985 7.28252 20.2985C4.9417 20.2985 3.03436 18.3555 3.03436 15.9807C3.03436 13.6059 4.9417 11.6629 7.28252 11.6629C9.53665 11.6629 11.4873 13.6059 11.4873 15.9807Z" fill="black"/>
<path fill-rule="evenodd" clip-rule="evenodd" d="M18.0744 12.1124H16.2104V9.43536H18.0744V7.19011C18.0744 4.72897 19.5916 2.35419 23.0595 2.35419C23.7531 2.35419 24.6634 2.48372 25.2703 2.69961L24.0999 5.29028C23.7097 5.11757 23.363 5.03122 22.8428 5.03122C21.6724 5.03122 20.9788 5.98113 20.9788 6.97422V9.39218H23.8398V12.0692H20.9788V22.691H18.1178V12.1124H18.0744Z" fill="black"/>
<path fill-rule="evenodd" clip-rule="evenodd" d="M26.9007 12.0244H25.2534V9.34737H26.9007V5.375H29.7617V9.34737H31.799V12.0244H29.7617V22.6462H26.9007V12.0244Z" fill="black"/>
<path fill-rule="evenodd" clip-rule="evenodd" d="M40.1112 23.0244C42.4954 23.0244 44.7062 21.8154 46.31 19.786L43.8825 18.4044C42.8855 19.7429 41.5851 20.4769 40.0245 20.4769C38.0305 20.4769 36.1231 19.0088 35.9497 16.9795H47.047V16.4614C47.047 11.28 42.8855 8.99158 40.1112 8.99158C35.4296 8.99158 32.7419 12.4458 32.7419 15.9864C32.7419 19.527 35.4296 23.0244 40.1112 23.0244ZM39.6445 11.4901C41.4652 11.4901 42.9824 12.5695 43.5893 14.5989H35.8732C36.35 12.6127 37.8239 11.4901 39.6445 11.4901Z" fill="black"/>
<path fill-rule="evenodd" clip-rule="evenodd" d="M49.2294 9.26211H51.917V10.7302H51.9603C52.4372 9.65071 53.4342 8.91669 54.6046 8.91669C55.2548 8.91669 55.775 9.0894 56.1652 9.34847L55.1248 12.1982C54.8647 11.9823 54.3445 11.8096 54.0411 11.8096C53.0007 11.8096 52.047 12.5868 52.047 13.839V22.6473H49.186V9.26211H49.2294Z" fill="black"/>
<path fill-rule="evenodd" clip-rule="evenodd" d="M58.2757 18.6562C59.316 19.7356 60.9633 20.5992 62.4805 20.5992C64.1277 20.5992 65.1247 19.6492 65.1247 18.9152C65.1247 18.0517 64.4312 17.5767 63.3908 17.3608L61.7435 17.0586C57.9722 16.3677 56.9319 15.1587 56.9319 13.2589C56.9319 11.0137 58.8392 8.89795 62.177 8.89795C64.041 8.89795 65.6449 9.45926 67.4656 10.7546L65.8183 12.784C64.4312 11.6182 63.1741 11.3159 62.2204 11.3159C60.9633 11.3159 59.7495 11.9204 59.7495 12.9998C59.7495 13.7771 60.3997 14.2088 61.4835 14.3815L64.3878 14.9429C66.772 15.3746 67.9424 16.4973 67.9424 18.4834C67.9424 20.4264 66.3385 22.9739 62.2637 22.9739C60.0096 22.9739 58.0589 22.1967 56.2383 20.6423L58.2757 18.6562Z" fill="black"/>
<path fill-rule="evenodd" clip-rule="evenodd" d="M69.6343 5.375H72.4953V11.0313H72.5386C73.3189 9.77914 74.7928 9.00194 76.6134 9.00194C79.4311 9.00194 81.8153 11.3335 81.8153 14.6582V22.6893H78.9543V15.2627C78.9543 12.8448 77.6972 11.8517 75.7898 11.8517C73.9258 11.8517 72.4953 13.0175 72.4953 15.2196V22.6893H69.6343V5.375V5.375Z" fill="black"/>
<path fill-rule="evenodd" clip-rule="evenodd" d="M87.3311 6.43773C87.3311 5.57417 86.5942 4.84015 85.7272 4.84015C84.8169 4.84015 84.1233 5.531 84.1233 6.43773C84.1233 7.30129 84.8602 8.03531 85.7272 8.03531C86.5942 8.03531 87.3311 7.30129 87.3311 6.43773ZM87.1714 9.36619H84.3105V22.665H87.1714V9.36619Z" fill="black"/>
<path fill-rule="evenodd" clip-rule="evenodd" d="M92.7486 10.9287H92.7052V9.33117H89.8442V27.25H92.7052V20.9892H92.7486C93.4855 22.1118 95.0027 22.9754 96.9967 22.9754C101.332 22.9754 104.063 19.2621 104.063 15.9806C104.063 12.5263 101.505 8.94257 97.1268 8.94257C95.3062 8.94257 93.789 9.67659 92.7486 10.9287ZM92.5751 15.9806C92.5751 13.6058 94.5258 11.6628 96.7799 11.6628C99.1207 11.6628 101.028 13.6058 101.028 15.9806C101.028 18.3554 99.1207 20.2984 96.7799 20.2984C94.5258 20.2984 92.5751 18.3554 92.5751 15.9806Z" fill="black"/>
</g>
</g>
<defs>
<clipPath id="clip0">
<rect width="105" height="32" fill="white"/>
</clipPath>
<clipPath id="clip1">
<rect width="104.083" height="32" fill="white"/>
</clipPath>
</defs>
</svg>
